<svg xmlns="http://www.w3.org/2000/svg" viewBox="0 0 512 512"><defs><style>.cls-1{fill:none;}.cls-2{fill:#f38030;}.cls-3{fill:#7f8c8d;}</style></defs><title>SIA_NEW_CIRCLE_LOGO_TRANSPARENT_01</title><g id="Layer_2" data-name="Layer 2"><rect class="cls-1" width="512" height="512"/></g><g id="Layer_3" data-name="Layer 3"><path class="cls-2" d="M7260.08,7199.5v60.58H7199.5a60.58,60.58,0,1,1,60.58-60.58m-59.81-101a101,101,0,1,0-.77,201.93h101v-99.7c0-55.67-44.53-101.81-100.2-102.23" transform="translate(-6943.5 -6943.5)"/><path class="cls-3" d="M7342.28,7056.71c-69.09-69.09-175.79-77.64-254.2-25.67a40.31,40.31,0,0,1,5.8,8.29c74.43-49.11,175.81-40.94,241.26,24.52,74.79,74.79,74.79,196.5,0,271.29s-196.5,74.79-271.29,0c-65.45-65.45-73.63-166.83-24.53-241.25a40,40,0,0,1-8.29-5.81c-52,78.41-43.42,185.11,25.67,254.2,78.86,78.86,206.71,78.86,285.57,0s78.86-206.71,0-285.57" transform="translate(-6943.5 -6943.5)"/><path class="cls-2" d="M7043.87,7043.87a20.19,20.19,0,1,1,0,28.56,20.19,20.19,0,0,1,0-28.56" transform="translate(-6943.5 -6943.5)"/></g></svg>